<mxfile host="Electron" agent="Mozilla/5.0 (Windows NT 10.0; Win64; x64) AppleWebKit/537.36 (KHTML, like Gecko) draw.io/26.0.9 Chrome/128.0.6613.186 Electron/32.2.5 Safari/537.36" version="26.0.9">
  <diagram id="C5RBs43oDa-KdzZeNtuy" name="Page-1">
    <mxGraphModel dx="1434" dy="2005" grid="1" gridSize="10" guides="1" tooltips="1" connect="1" arrows="1" fold="1" page="1" pageScale="1" pageWidth="827" pageHeight="1169" math="0" shadow="0">
      <root>
        <mxCell id="WIyWlLk6GJQsqaUBKTNV-0" />
        <mxCell id="WIyWlLk6GJQsqaUBKTNV-1" parent="WIyWlLk6GJQsqaUBKTNV-0" />
        <mxCell id="Jel6dJNTwGemCwluBwx1-0" value="Start" style="strokeWidth=2;html=1;shape=mxgraph.flowchart.start_2;whiteSpace=wrap;" vertex="1" parent="WIyWlLk6GJQsqaUBKTNV-1">
          <mxGeometry x="110" width="100" height="100" as="geometry" />
        </mxCell>
        <mxCell id="Jel6dJNTwGemCwluBwx1-1" value="End" style="strokeWidth=2;html=1;shape=mxgraph.flowchart.terminator;whiteSpace=wrap;" vertex="1" parent="WIyWlLk6GJQsqaUBKTNV-1">
          <mxGeometry x="980" y="1600" width="100" height="60" as="geometry" />
        </mxCell>
        <mxCell id="Jel6dJNTwGemCwluBwx1-22" style="edgeStyle=orthogonalEdgeStyle;rounded=0;orthogonalLoop=1;jettySize=auto;html=1;exitX=0.5;exitY=1;exitDx=0;exitDy=0;exitPerimeter=0;entryX=0.5;entryY=0;entryDx=0;entryDy=0;" edge="1" parent="WIyWlLk6GJQsqaUBKTNV-1" source="Jel6dJNTwGemCwluBwx1-2" target="Jel6dJNTwGemCwluBwx1-3">
          <mxGeometry relative="1" as="geometry" />
        </mxCell>
        <mxCell id="Jel6dJNTwGemCwluBwx1-2" value="Prompt user:&lt;div&gt;Please enter&amp;nbsp;&lt;span style=&quot;background-color: transparent; color: light-dark(rgb(0, 0, 0), rgb(255, 255, 255));&quot;&gt;current&lt;/span&gt;&lt;span style=&quot;background-color: transparent; color: light-dark(rgb(0, 0, 0), rgb(255, 255, 255));&quot;&gt;&amp;nbsp;month&lt;/span&gt;&lt;/div&gt;&lt;div&gt;&lt;div&gt;&amp;nbsp;using numbers 1-12&lt;/div&gt;&lt;/div&gt;" style="strokeWidth=2;html=1;shape=mxgraph.flowchart.display;whiteSpace=wrap;" vertex="1" parent="WIyWlLk6GJQsqaUBKTNV-1">
          <mxGeometry x="80" y="260" width="160" height="80" as="geometry" />
        </mxCell>
        <mxCell id="Jel6dJNTwGemCwluBwx1-3" value="Get integer, refer to &lt;b&gt;selection&lt;/b&gt;" style="shape=parallelogram;html=1;strokeWidth=2;perimeter=parallelogramPerimeter;whiteSpace=wrap;rounded=1;arcSize=12;size=0.23;" vertex="1" parent="WIyWlLk6GJQsqaUBKTNV-1">
          <mxGeometry x="50" y="390" width="220" height="60" as="geometry" />
        </mxCell>
        <mxCell id="Jel6dJNTwGemCwluBwx1-5" value="if &lt;b&gt;selection &lt;/b&gt;= 3" style="strokeWidth=2;html=1;shape=mxgraph.flowchart.decision;whiteSpace=wrap;" vertex="1" parent="WIyWlLk6GJQsqaUBKTNV-1">
          <mxGeometry x="440" y="-430" width="100" height="100" as="geometry" />
        </mxCell>
        <mxCell id="Jel6dJNTwGemCwluBwx1-6" value="Display &quot;Welcome&quot;" style="strokeWidth=2;html=1;shape=mxgraph.flowchart.display;whiteSpace=wrap;" vertex="1" parent="WIyWlLk6GJQsqaUBKTNV-1">
          <mxGeometry x="110" y="130" width="100" height="60" as="geometry" />
        </mxCell>
        <mxCell id="Jel6dJNTwGemCwluBwx1-7" value="if else &lt;b&gt;selection&lt;/b&gt;&lt;div&gt;&amp;nbsp;= 4&lt;/div&gt;" style="strokeWidth=2;html=1;shape=mxgraph.flowchart.decision;whiteSpace=wrap;" vertex="1" parent="WIyWlLk6GJQsqaUBKTNV-1">
          <mxGeometry x="420" y="-210" width="120" height="100" as="geometry" />
        </mxCell>
        <mxCell id="Jel6dJNTwGemCwluBwx1-8" value="if else &lt;b&gt;selection&lt;/b&gt;&lt;div&gt;&amp;nbsp;= 5&lt;/div&gt;" style="strokeWidth=2;html=1;shape=mxgraph.flowchart.decision;whiteSpace=wrap;" vertex="1" parent="WIyWlLk6GJQsqaUBKTNV-1">
          <mxGeometry x="420" y="-50" width="110" height="100" as="geometry" />
        </mxCell>
        <mxCell id="Jel6dJNTwGemCwluBwx1-9" value="if else &lt;b&gt;selection&lt;/b&gt;&lt;div&gt;&amp;nbsp;= 6&lt;/div&gt;" style="strokeWidth=2;html=1;shape=mxgraph.flowchart.decision;whiteSpace=wrap;" vertex="1" parent="WIyWlLk6GJQsqaUBKTNV-1">
          <mxGeometry x="415" y="100" width="120" height="100" as="geometry" />
        </mxCell>
        <mxCell id="Jel6dJNTwGemCwluBwx1-10" value="if else &lt;b&gt;selection&lt;/b&gt;&lt;div&gt;&amp;nbsp;= 7&lt;/div&gt;" style="strokeWidth=2;html=1;shape=mxgraph.flowchart.decision;whiteSpace=wrap;" vertex="1" parent="WIyWlLk6GJQsqaUBKTNV-1">
          <mxGeometry x="415" y="240" width="120" height="100" as="geometry" />
        </mxCell>
        <mxCell id="Jel6dJNTwGemCwluBwx1-11" value="if else &lt;b&gt;selection&lt;/b&gt;&lt;div&gt;&amp;nbsp;= 8&lt;/div&gt;" style="strokeWidth=2;html=1;shape=mxgraph.flowchart.decision;whiteSpace=wrap;" vertex="1" parent="WIyWlLk6GJQsqaUBKTNV-1">
          <mxGeometry x="420" y="380" width="120" height="100" as="geometry" />
        </mxCell>
        <mxCell id="Jel6dJNTwGemCwluBwx1-12" value="if else &lt;b&gt;selection&lt;/b&gt;&lt;div&gt;&amp;nbsp;= 9&lt;/div&gt;" style="strokeWidth=2;html=1;shape=mxgraph.flowchart.decision;whiteSpace=wrap;" vertex="1" parent="WIyWlLk6GJQsqaUBKTNV-1">
          <mxGeometry x="430" y="520" width="120" height="100" as="geometry" />
        </mxCell>
        <mxCell id="Jel6dJNTwGemCwluBwx1-13" value="if else &lt;b&gt;selection&lt;/b&gt;&lt;div&gt;&amp;nbsp;= 10&lt;/div&gt;" style="strokeWidth=2;html=1;shape=mxgraph.flowchart.decision;whiteSpace=wrap;" vertex="1" parent="WIyWlLk6GJQsqaUBKTNV-1">
          <mxGeometry x="360" y="670" width="120" height="100" as="geometry" />
        </mxCell>
        <mxCell id="Jel6dJNTwGemCwluBwx1-15" value="if else &lt;b&gt;selection&lt;/b&gt;&lt;div&gt;&amp;nbsp;= 11&lt;/div&gt;" style="strokeWidth=2;html=1;shape=mxgraph.flowchart.decision;whiteSpace=wrap;" vertex="1" parent="WIyWlLk6GJQsqaUBKTNV-1">
          <mxGeometry x="354" y="820" width="120" height="100" as="geometry" />
        </mxCell>
        <mxCell id="Jel6dJNTwGemCwluBwx1-16" value="if else &lt;b&gt;selection&lt;/b&gt;&lt;div&gt;&amp;nbsp;= 12&lt;/div&gt;" style="strokeWidth=2;html=1;shape=mxgraph.flowchart.decision;whiteSpace=wrap;" vertex="1" parent="WIyWlLk6GJQsqaUBKTNV-1">
          <mxGeometry x="340" y="1010" width="120" height="100" as="geometry" />
        </mxCell>
        <mxCell id="Jel6dJNTwGemCwluBwx1-17" value="if else &lt;b&gt;selection&lt;/b&gt;&lt;div&gt;&amp;nbsp;=&amp;nbsp; 1&lt;/div&gt;" style="strokeWidth=2;html=1;shape=mxgraph.flowchart.decision;whiteSpace=wrap;" vertex="1" parent="WIyWlLk6GJQsqaUBKTNV-1">
          <mxGeometry x="354" y="1210" width="120" height="100" as="geometry" />
        </mxCell>
        <mxCell id="Jel6dJNTwGemCwluBwx1-18" value="if else &lt;b&gt;selection&lt;/b&gt;&lt;div&gt;&amp;nbsp;= 2&lt;/div&gt;" style="strokeWidth=2;html=1;shape=mxgraph.flowchart.decision;whiteSpace=wrap;" vertex="1" parent="WIyWlLk6GJQsqaUBKTNV-1">
          <mxGeometry x="350" y="1400" width="140" height="100" as="geometry" />
        </mxCell>
        <mxCell id="Jel6dJNTwGemCwluBwx1-20" style="edgeStyle=orthogonalEdgeStyle;rounded=0;orthogonalLoop=1;jettySize=auto;html=1;exitX=0.5;exitY=1;exitDx=0;exitDy=0;exitPerimeter=0;entryX=0.5;entryY=0;entryDx=0;entryDy=0;entryPerimeter=0;" edge="1" parent="WIyWlLk6GJQsqaUBKTNV-1" source="Jel6dJNTwGemCwluBwx1-0" target="Jel6dJNTwGemCwluBwx1-6">
          <mxGeometry relative="1" as="geometry" />
        </mxCell>
        <mxCell id="Jel6dJNTwGemCwluBwx1-21" style="edgeStyle=orthogonalEdgeStyle;rounded=0;orthogonalLoop=1;jettySize=auto;html=1;exitX=0.5;exitY=1;exitDx=0;exitDy=0;exitPerimeter=0;entryX=0.5;entryY=0;entryDx=0;entryDy=0;entryPerimeter=0;" edge="1" parent="WIyWlLk6GJQsqaUBKTNV-1" source="Jel6dJNTwGemCwluBwx1-6" target="Jel6dJNTwGemCwluBwx1-2">
          <mxGeometry relative="1" as="geometry" />
        </mxCell>
        <mxCell id="Jel6dJNTwGemCwluBwx1-23" style="edgeStyle=orthogonalEdgeStyle;rounded=0;orthogonalLoop=1;jettySize=auto;html=1;exitX=1;exitY=0.5;exitDx=0;exitDy=0;entryX=0;entryY=0.5;entryDx=0;entryDy=0;entryPerimeter=0;" edge="1" parent="WIyWlLk6GJQsqaUBKTNV-1" source="Jel6dJNTwGemCwluBwx1-3" target="Jel6dJNTwGemCwluBwx1-5">
          <mxGeometry relative="1" as="geometry" />
        </mxCell>
        <mxCell id="Jel6dJNTwGemCwluBwx1-24" style="edgeStyle=orthogonalEdgeStyle;rounded=0;orthogonalLoop=1;jettySize=auto;html=1;exitX=0.5;exitY=1;exitDx=0;exitDy=0;exitPerimeter=0;entryX=0.5;entryY=0;entryDx=0;entryDy=0;entryPerimeter=0;" edge="1" parent="WIyWlLk6GJQsqaUBKTNV-1" source="Jel6dJNTwGemCwluBwx1-5" target="Jel6dJNTwGemCwluBwx1-7">
          <mxGeometry relative="1" as="geometry" />
        </mxCell>
        <mxCell id="Jel6dJNTwGemCwluBwx1-31" value="FALSE" style="edgeLabel;html=1;align=center;verticalAlign=middle;resizable=0;points=[];" vertex="1" connectable="0" parent="Jel6dJNTwGemCwluBwx1-24">
          <mxGeometry x="-0.2154" y="1" relative="1" as="geometry">
            <mxPoint as="offset" />
          </mxGeometry>
        </mxCell>
        <mxCell id="Jel6dJNTwGemCwluBwx1-25" style="edgeStyle=orthogonalEdgeStyle;rounded=0;orthogonalLoop=1;jettySize=auto;html=1;exitX=0.5;exitY=1;exitDx=0;exitDy=0;exitPerimeter=0;entryX=0.5;entryY=0;entryDx=0;entryDy=0;entryPerimeter=0;" edge="1" parent="WIyWlLk6GJQsqaUBKTNV-1" source="Jel6dJNTwGemCwluBwx1-7" target="Jel6dJNTwGemCwluBwx1-8">
          <mxGeometry relative="1" as="geometry" />
        </mxCell>
        <mxCell id="Jel6dJNTwGemCwluBwx1-32" value="FALSE" style="edgeLabel;html=1;align=center;verticalAlign=middle;resizable=0;points=[];" vertex="1" connectable="0" parent="Jel6dJNTwGemCwluBwx1-25">
          <mxGeometry x="0.1385" y="2" relative="1" as="geometry">
            <mxPoint as="offset" />
          </mxGeometry>
        </mxCell>
        <mxCell id="Jel6dJNTwGemCwluBwx1-26" style="edgeStyle=orthogonalEdgeStyle;rounded=0;orthogonalLoop=1;jettySize=auto;html=1;exitX=0.5;exitY=1;exitDx=0;exitDy=0;exitPerimeter=0;entryX=0.5;entryY=0;entryDx=0;entryDy=0;entryPerimeter=0;" edge="1" parent="WIyWlLk6GJQsqaUBKTNV-1" source="Jel6dJNTwGemCwluBwx1-8" target="Jel6dJNTwGemCwluBwx1-9">
          <mxGeometry relative="1" as="geometry" />
        </mxCell>
        <mxCell id="Jel6dJNTwGemCwluBwx1-33" value="FALSE" style="edgeLabel;html=1;align=center;verticalAlign=middle;resizable=0;points=[];" vertex="1" connectable="0" parent="Jel6dJNTwGemCwluBwx1-26">
          <mxGeometry x="-0.16" y="-1" relative="1" as="geometry">
            <mxPoint as="offset" />
          </mxGeometry>
        </mxCell>
        <mxCell id="Jel6dJNTwGemCwluBwx1-27" style="edgeStyle=orthogonalEdgeStyle;rounded=0;orthogonalLoop=1;jettySize=auto;html=1;exitX=0.5;exitY=1;exitDx=0;exitDy=0;exitPerimeter=0;entryX=0.5;entryY=0;entryDx=0;entryDy=0;entryPerimeter=0;" edge="1" parent="WIyWlLk6GJQsqaUBKTNV-1" source="Jel6dJNTwGemCwluBwx1-9" target="Jel6dJNTwGemCwluBwx1-10">
          <mxGeometry relative="1" as="geometry" />
        </mxCell>
        <mxCell id="Jel6dJNTwGemCwluBwx1-34" value="FALSE" style="edgeLabel;html=1;align=center;verticalAlign=middle;resizable=0;points=[];" vertex="1" connectable="0" parent="Jel6dJNTwGemCwluBwx1-27">
          <mxGeometry x="-0.55" relative="1" as="geometry">
            <mxPoint as="offset" />
          </mxGeometry>
        </mxCell>
        <mxCell id="Jel6dJNTwGemCwluBwx1-28" style="edgeStyle=orthogonalEdgeStyle;rounded=0;orthogonalLoop=1;jettySize=auto;html=1;exitX=0.5;exitY=1;exitDx=0;exitDy=0;exitPerimeter=0;entryX=0.5;entryY=0;entryDx=0;entryDy=0;entryPerimeter=0;" edge="1" parent="WIyWlLk6GJQsqaUBKTNV-1" source="Jel6dJNTwGemCwluBwx1-10" target="Jel6dJNTwGemCwluBwx1-11">
          <mxGeometry relative="1" as="geometry" />
        </mxCell>
        <mxCell id="Jel6dJNTwGemCwluBwx1-35" value="FALSE" style="edgeLabel;html=1;align=center;verticalAlign=middle;resizable=0;points=[];" vertex="1" connectable="0" parent="Jel6dJNTwGemCwluBwx1-28">
          <mxGeometry x="-0.0222" relative="1" as="geometry">
            <mxPoint as="offset" />
          </mxGeometry>
        </mxCell>
        <mxCell id="Jel6dJNTwGemCwluBwx1-29" style="edgeStyle=orthogonalEdgeStyle;rounded=0;orthogonalLoop=1;jettySize=auto;html=1;exitX=0.5;exitY=1;exitDx=0;exitDy=0;exitPerimeter=0;entryX=0.5;entryY=0;entryDx=0;entryDy=0;entryPerimeter=0;" edge="1" parent="WIyWlLk6GJQsqaUBKTNV-1" source="Jel6dJNTwGemCwluBwx1-11" target="Jel6dJNTwGemCwluBwx1-12">
          <mxGeometry relative="1" as="geometry" />
        </mxCell>
        <mxCell id="Jel6dJNTwGemCwluBwx1-36" value="FALSE" style="edgeLabel;html=1;align=center;verticalAlign=middle;resizable=0;points=[];" vertex="1" connectable="0" parent="Jel6dJNTwGemCwluBwx1-29">
          <mxGeometry x="-0.4" y="4" relative="1" as="geometry">
            <mxPoint as="offset" />
          </mxGeometry>
        </mxCell>
        <mxCell id="Jel6dJNTwGemCwluBwx1-30" style="edgeStyle=orthogonalEdgeStyle;rounded=0;orthogonalLoop=1;jettySize=auto;html=1;exitX=0.5;exitY=1;exitDx=0;exitDy=0;exitPerimeter=0;entryX=0.5;entryY=0;entryDx=0;entryDy=0;entryPerimeter=0;" edge="1" parent="WIyWlLk6GJQsqaUBKTNV-1" source="Jel6dJNTwGemCwluBwx1-12" target="Jel6dJNTwGemCwluBwx1-13">
          <mxGeometry relative="1" as="geometry" />
        </mxCell>
        <mxCell id="Jel6dJNTwGemCwluBwx1-37" value="FALSE" style="edgeLabel;html=1;align=center;verticalAlign=middle;resizable=0;points=[];" vertex="1" connectable="0" parent="Jel6dJNTwGemCwluBwx1-30">
          <mxGeometry x="-0.0333" relative="1" as="geometry">
            <mxPoint as="offset" />
          </mxGeometry>
        </mxCell>
        <mxCell id="Jel6dJNTwGemCwluBwx1-38" style="edgeStyle=orthogonalEdgeStyle;rounded=0;orthogonalLoop=1;jettySize=auto;html=1;exitX=0.5;exitY=1;exitDx=0;exitDy=0;exitPerimeter=0;entryX=0.5;entryY=0;entryDx=0;entryDy=0;entryPerimeter=0;" edge="1" parent="WIyWlLk6GJQsqaUBKTNV-1" source="Jel6dJNTwGemCwluBwx1-13" target="Jel6dJNTwGemCwluBwx1-15">
          <mxGeometry relative="1" as="geometry" />
        </mxCell>
        <mxCell id="Jel6dJNTwGemCwluBwx1-39" value="FALSE" style="edgeLabel;html=1;align=center;verticalAlign=middle;resizable=0;points=[];" vertex="1" connectable="0" parent="Jel6dJNTwGemCwluBwx1-38">
          <mxGeometry x="0.0357" y="1" relative="1" as="geometry">
            <mxPoint as="offset" />
          </mxGeometry>
        </mxCell>
        <mxCell id="Jel6dJNTwGemCwluBwx1-40" style="edgeStyle=orthogonalEdgeStyle;rounded=0;orthogonalLoop=1;jettySize=auto;html=1;exitX=0.5;exitY=1;exitDx=0;exitDy=0;exitPerimeter=0;entryX=0.5;entryY=0;entryDx=0;entryDy=0;entryPerimeter=0;" edge="1" parent="WIyWlLk6GJQsqaUBKTNV-1" source="Jel6dJNTwGemCwluBwx1-15" target="Jel6dJNTwGemCwluBwx1-16">
          <mxGeometry relative="1" as="geometry" />
        </mxCell>
        <mxCell id="Jel6dJNTwGemCwluBwx1-41" value="FALSE" style="edgeLabel;html=1;align=center;verticalAlign=middle;resizable=0;points=[];" vertex="1" connectable="0" parent="Jel6dJNTwGemCwluBwx1-40">
          <mxGeometry x="0.1731" y="2" relative="1" as="geometry">
            <mxPoint as="offset" />
          </mxGeometry>
        </mxCell>
        <mxCell id="Jel6dJNTwGemCwluBwx1-42" style="edgeStyle=orthogonalEdgeStyle;rounded=0;orthogonalLoop=1;jettySize=auto;html=1;exitX=0.5;exitY=1;exitDx=0;exitDy=0;exitPerimeter=0;entryX=0.5;entryY=0;entryDx=0;entryDy=0;entryPerimeter=0;" edge="1" parent="WIyWlLk6GJQsqaUBKTNV-1" source="Jel6dJNTwGemCwluBwx1-16" target="Jel6dJNTwGemCwluBwx1-17">
          <mxGeometry relative="1" as="geometry" />
        </mxCell>
        <mxCell id="Jel6dJNTwGemCwluBwx1-43" value="FALSE" style="edgeLabel;html=1;align=center;verticalAlign=middle;resizable=0;points=[];" vertex="1" connectable="0" parent="Jel6dJNTwGemCwluBwx1-42">
          <mxGeometry x="0.0175" y="-2" relative="1" as="geometry">
            <mxPoint as="offset" />
          </mxGeometry>
        </mxCell>
        <mxCell id="Jel6dJNTwGemCwluBwx1-44" style="edgeStyle=orthogonalEdgeStyle;rounded=0;orthogonalLoop=1;jettySize=auto;html=1;exitX=0.5;exitY=1;exitDx=0;exitDy=0;exitPerimeter=0;entryX=0.5;entryY=0;entryDx=0;entryDy=0;entryPerimeter=0;" edge="1" parent="WIyWlLk6GJQsqaUBKTNV-1" source="Jel6dJNTwGemCwluBwx1-17" target="Jel6dJNTwGemCwluBwx1-18">
          <mxGeometry relative="1" as="geometry" />
        </mxCell>
        <mxCell id="Jel6dJNTwGemCwluBwx1-45" value="FALSE" style="edgeLabel;html=1;align=center;verticalAlign=middle;resizable=0;points=[];" vertex="1" connectable="0" parent="Jel6dJNTwGemCwluBwx1-44">
          <mxGeometry x="0.1042" relative="1" as="geometry">
            <mxPoint as="offset" />
          </mxGeometry>
        </mxCell>
        <mxCell id="Jel6dJNTwGemCwluBwx1-47" value="Display&amp;nbsp;&lt;div&gt;&quot;The month is March and the&lt;div&gt;&amp;nbsp;season is Spring.&quot;&lt;/div&gt;&lt;/div&gt;" style="strokeWidth=2;html=1;shape=mxgraph.flowchart.display;whiteSpace=wrap;" vertex="1" parent="WIyWlLk6GJQsqaUBKTNV-1">
          <mxGeometry x="650" y="-410" width="140" height="80" as="geometry" />
        </mxCell>
        <mxCell id="Jel6dJNTwGemCwluBwx1-86" style="edgeStyle=orthogonalEdgeStyle;rounded=0;orthogonalLoop=1;jettySize=auto;html=1;exitX=1;exitY=0.5;exitDx=0;exitDy=0;exitPerimeter=0;" edge="1" parent="WIyWlLk6GJQsqaUBKTNV-1" source="Jel6dJNTwGemCwluBwx1-48">
          <mxGeometry relative="1" as="geometry">
            <mxPoint x="1030" y="-130" as="targetPoint" />
          </mxGeometry>
        </mxCell>
        <mxCell id="Jel6dJNTwGemCwluBwx1-48" value="Display&amp;nbsp;&lt;div&gt;&quot;The month is April and the&lt;div&gt;&amp;nbsp;season is Spring.&quot;&lt;/div&gt;&lt;/div&gt;" style="strokeWidth=2;html=1;shape=mxgraph.flowchart.display;whiteSpace=wrap;" vertex="1" parent="WIyWlLk6GJQsqaUBKTNV-1">
          <mxGeometry x="640" y="-200" width="150" height="60" as="geometry" />
        </mxCell>
        <mxCell id="Jel6dJNTwGemCwluBwx1-87" style="edgeStyle=orthogonalEdgeStyle;rounded=0;orthogonalLoop=1;jettySize=auto;html=1;exitX=1;exitY=0.5;exitDx=0;exitDy=0;exitPerimeter=0;" edge="1" parent="WIyWlLk6GJQsqaUBKTNV-1" source="Jel6dJNTwGemCwluBwx1-49">
          <mxGeometry relative="1" as="geometry">
            <mxPoint x="1030" y="40" as="targetPoint" />
          </mxGeometry>
        </mxCell>
        <mxCell id="Jel6dJNTwGemCwluBwx1-49" value="Display&amp;nbsp;&lt;div&gt;&quot;The month is Mayand the&lt;div&gt;&amp;nbsp;season is Spring.&quot;&lt;/div&gt;&lt;/div&gt;" style="strokeWidth=2;html=1;shape=mxgraph.flowchart.display;whiteSpace=wrap;" vertex="1" parent="WIyWlLk6GJQsqaUBKTNV-1">
          <mxGeometry x="650" y="-30" width="160" height="60" as="geometry" />
        </mxCell>
        <mxCell id="Jel6dJNTwGemCwluBwx1-89" style="edgeStyle=orthogonalEdgeStyle;rounded=0;orthogonalLoop=1;jettySize=auto;html=1;exitX=1;exitY=0.5;exitDx=0;exitDy=0;exitPerimeter=0;" edge="1" parent="WIyWlLk6GJQsqaUBKTNV-1" source="Jel6dJNTwGemCwluBwx1-50">
          <mxGeometry relative="1" as="geometry">
            <mxPoint x="1030" y="360" as="targetPoint" />
          </mxGeometry>
        </mxCell>
        <mxCell id="Jel6dJNTwGemCwluBwx1-50" value="&lt;br&gt;&lt;span style=&quot;color: rgb(0, 0, 0); font-family: Helvetica; font-size: 12px; font-style: normal; font-variant-ligatures: normal; font-variant-caps: normal; font-weight: 400; letter-spacing: normal; orphans: 2; text-align: center; text-indent: 0px; text-transform: none; widows: 2; word-spacing: 0px; -webkit-text-stroke-width: 0px; white-space: normal; background-color: rgb(251, 251, 251); text-decoration-thickness: initial; text-decoration-style: initial; text-decoration-color: initial; float: none; display: inline !important;&quot;&gt;Display&amp;nbsp;&lt;/span&gt;&lt;div style=&quot;forced-color-adjust: none; color: rgb(0, 0, 0); font-family: Helvetica; font-size: 12px; font-style: normal; font-variant-ligatures: normal; font-variant-caps: normal; font-weight: 400; letter-spacing: normal; orphans: 2; text-align: center; text-indent: 0px; text-transform: none; widows: 2; word-spacing: 0px; -webkit-text-stroke-width: 0px; white-space: normal; background-color: rgb(251, 251, 251); text-decoration-thickness: initial; text-decoration-style: initial; text-decoration-color: initial;&quot;&gt;&quot;The month is July&amp;nbsp;&lt;/div&gt;&lt;div style=&quot;forced-color-adjust: none; color: rgb(0, 0, 0); font-family: Helvetica; font-size: 12px; font-style: normal; font-variant-ligatures: normal; font-variant-caps: normal; font-weight: 400; letter-spacing: normal; orphans: 2; text-align: center; text-indent: 0px; text-transform: none; widows: 2; word-spacing: 0px; -webkit-text-stroke-width: 0px; white-space: normal; background-color: rgb(251, 251, 251); text-decoration-thickness: initial; text-decoration-style: initial; text-decoration-color: initial;&quot;&gt;and the&lt;div style=&quot;forced-color-adjust: none;&quot;&gt;&amp;nbsp;season is Summer.&quot;&lt;/div&gt;&lt;/div&gt;&lt;div&gt;&lt;br&gt;&lt;/div&gt;" style="strokeWidth=2;html=1;shape=mxgraph.flowchart.display;whiteSpace=wrap;" vertex="1" parent="WIyWlLk6GJQsqaUBKTNV-1">
          <mxGeometry x="660" y="260" width="160" height="90" as="geometry" />
        </mxCell>
        <mxCell id="Jel6dJNTwGemCwluBwx1-88" style="edgeStyle=orthogonalEdgeStyle;rounded=0;orthogonalLoop=1;jettySize=auto;html=1;exitX=1;exitY=0.5;exitDx=0;exitDy=0;exitPerimeter=0;" edge="1" parent="WIyWlLk6GJQsqaUBKTNV-1" source="Jel6dJNTwGemCwluBwx1-51">
          <mxGeometry relative="1" as="geometry">
            <mxPoint x="1030" y="200" as="targetPoint" />
          </mxGeometry>
        </mxCell>
        <mxCell id="Jel6dJNTwGemCwluBwx1-51" value="Display&amp;nbsp;&lt;div&gt;&quot;The month is June and the&lt;div&gt;&amp;nbsp;season is Summer.&quot;&lt;/div&gt;&lt;/div&gt;" style="strokeWidth=2;html=1;shape=mxgraph.flowchart.display;whiteSpace=wrap;" vertex="1" parent="WIyWlLk6GJQsqaUBKTNV-1">
          <mxGeometry x="660" y="120" width="150" height="70" as="geometry" />
        </mxCell>
        <mxCell id="Jel6dJNTwGemCwluBwx1-93" style="edgeStyle=orthogonalEdgeStyle;rounded=0;orthogonalLoop=1;jettySize=auto;html=1;exitX=1;exitY=0.5;exitDx=0;exitDy=0;exitPerimeter=0;" edge="1" parent="WIyWlLk6GJQsqaUBKTNV-1" source="Jel6dJNTwGemCwluBwx1-52">
          <mxGeometry relative="1" as="geometry">
            <mxPoint x="1030" y="920" as="targetPoint" />
          </mxGeometry>
        </mxCell>
        <mxCell id="Jel6dJNTwGemCwluBwx1-52" value="Display&amp;nbsp;&lt;div&gt;&quot;The month is November&amp;nbsp;&lt;/div&gt;&lt;div&gt;and the&lt;div&gt;&amp;nbsp;season is Fall.&quot;&lt;/div&gt;&lt;/div&gt;" style="strokeWidth=2;html=1;shape=mxgraph.flowchart.display;whiteSpace=wrap;" vertex="1" parent="WIyWlLk6GJQsqaUBKTNV-1">
          <mxGeometry x="610" y="830" width="230" height="80" as="geometry" />
        </mxCell>
        <mxCell id="Jel6dJNTwGemCwluBwx1-90" style="edgeStyle=orthogonalEdgeStyle;rounded=0;orthogonalLoop=1;jettySize=auto;html=1;exitX=1;exitY=0.5;exitDx=0;exitDy=0;exitPerimeter=0;" edge="1" parent="WIyWlLk6GJQsqaUBKTNV-1" source="Jel6dJNTwGemCwluBwx1-53">
          <mxGeometry relative="1" as="geometry">
            <mxPoint x="1030" y="500" as="targetPoint" />
          </mxGeometry>
        </mxCell>
        <mxCell id="Jel6dJNTwGemCwluBwx1-53" value="Display&amp;nbsp;&lt;div&gt;&quot;The month is August and the&lt;div&gt;&amp;nbsp;season is Summer.&quot;&lt;/div&gt;&lt;/div&gt;" style="strokeWidth=2;html=1;shape=mxgraph.flowchart.display;whiteSpace=wrap;" vertex="1" parent="WIyWlLk6GJQsqaUBKTNV-1">
          <mxGeometry x="670" y="410" width="150" height="80" as="geometry" />
        </mxCell>
        <mxCell id="Jel6dJNTwGemCwluBwx1-92" style="edgeStyle=orthogonalEdgeStyle;rounded=0;orthogonalLoop=1;jettySize=auto;html=1;exitX=1;exitY=0.5;exitDx=0;exitDy=0;exitPerimeter=0;" edge="1" parent="WIyWlLk6GJQsqaUBKTNV-1" source="Jel6dJNTwGemCwluBwx1-54">
          <mxGeometry relative="1" as="geometry">
            <mxPoint x="1030" y="790" as="targetPoint" />
          </mxGeometry>
        </mxCell>
        <mxCell id="Jel6dJNTwGemCwluBwx1-54" value="&lt;br&gt;&lt;span style=&quot;color: rgb(0, 0, 0); font-family: Helvetica; font-size: 12px; font-style: normal; font-variant-ligatures: normal; font-variant-caps: normal; font-weight: 400; letter-spacing: normal; orphans: 2; text-align: center; text-indent: 0px; text-transform: none; widows: 2; word-spacing: 0px; -webkit-text-stroke-width: 0px; white-space: normal; background-color: rgb(251, 251, 251); text-decoration-thickness: initial; text-decoration-style: initial; text-decoration-color: initial; float: none; display: inline !important;&quot;&gt;Display&amp;nbsp;&lt;/span&gt;&lt;div style=&quot;forced-color-adjust: none; color: rgb(0, 0, 0); font-family: Helvetica; font-size: 12px; font-style: normal; font-variant-ligatures: normal; font-variant-caps: normal; font-weight: 400; letter-spacing: normal; orphans: 2; text-align: center; text-indent: 0px; text-transform: none; widows: 2; word-spacing: 0px; -webkit-text-stroke-width: 0px; white-space: normal; background-color: rgb(251, 251, 251); text-decoration-thickness: initial; text-decoration-style: initial; text-decoration-color: initial;&quot;&gt;&quot;The month is October and the&lt;div style=&quot;forced-color-adjust: none;&quot;&gt;&amp;nbsp;season is Fall.&quot;&lt;/div&gt;&lt;/div&gt;&lt;div&gt;&lt;br/&gt;&lt;/div&gt;" style="strokeWidth=2;html=1;shape=mxgraph.flowchart.display;whiteSpace=wrap;" vertex="1" parent="WIyWlLk6GJQsqaUBKTNV-1">
          <mxGeometry x="640" y="680" width="200" height="100" as="geometry" />
        </mxCell>
        <mxCell id="Jel6dJNTwGemCwluBwx1-91" style="edgeStyle=orthogonalEdgeStyle;rounded=0;orthogonalLoop=1;jettySize=auto;html=1;exitX=1;exitY=0.5;exitDx=0;exitDy=0;exitPerimeter=0;" edge="1" parent="WIyWlLk6GJQsqaUBKTNV-1" source="Jel6dJNTwGemCwluBwx1-55">
          <mxGeometry relative="1" as="geometry">
            <mxPoint x="1030" y="640" as="targetPoint" />
          </mxGeometry>
        </mxCell>
        <mxCell id="Jel6dJNTwGemCwluBwx1-55" value="Display&amp;nbsp;&lt;div&gt;&quot;The month is September and the&lt;div&gt;&amp;nbsp;season is Fall.&quot;&lt;/div&gt;&lt;/div&gt;" style="strokeWidth=2;html=1;shape=mxgraph.flowchart.display;whiteSpace=wrap;" vertex="1" parent="WIyWlLk6GJQsqaUBKTNV-1">
          <mxGeometry x="670" y="555" width="150" height="75" as="geometry" />
        </mxCell>
        <mxCell id="Jel6dJNTwGemCwluBwx1-96" style="edgeStyle=orthogonalEdgeStyle;rounded=0;orthogonalLoop=1;jettySize=auto;html=1;exitX=1;exitY=0.5;exitDx=0;exitDy=0;exitPerimeter=0;" edge="1" parent="WIyWlLk6GJQsqaUBKTNV-1" source="Jel6dJNTwGemCwluBwx1-56">
          <mxGeometry relative="1" as="geometry">
            <mxPoint x="1030" y="1510" as="targetPoint" />
          </mxGeometry>
        </mxCell>
        <mxCell id="Jel6dJNTwGemCwluBwx1-56" value="&lt;br&gt;&lt;span style=&quot;color: rgb(0, 0, 0); font-family: Helvetica; font-size: 12px; font-style: normal; font-variant-ligatures: normal; font-variant-caps: normal; font-weight: 400; letter-spacing: normal; orphans: 2; text-align: center; text-indent: 0px; text-transform: none; widows: 2; word-spacing: 0px; -webkit-text-stroke-width: 0px; white-space: normal; background-color: rgb(251, 251, 251); text-decoration-thickness: initial; text-decoration-style: initial; text-decoration-color: initial; float: none; display: inline !important;&quot;&gt;Display&amp;nbsp;&lt;/span&gt;&lt;div style=&quot;forced-color-adjust: none; color: rgb(0, 0, 0); font-family: Helvetica; font-size: 12px; font-style: normal; font-variant-ligatures: normal; font-variant-caps: normal; font-weight: 400; letter-spacing: normal; orphans: 2; text-align: center; text-indent: 0px; text-transform: none; widows: 2; word-spacing: 0px; -webkit-text-stroke-width: 0px; white-space: normal; background-color: rgb(251, 251, 251); text-decoration-thickness: initial; text-decoration-style: initial; text-decoration-color: initial;&quot;&gt;&quot;The month is February and the&lt;div style=&quot;forced-color-adjust: none;&quot;&gt;&amp;nbsp;season is Winter.&quot;&lt;/div&gt;&lt;/div&gt;&lt;div&gt;&lt;br/&gt;&lt;/div&gt;" style="strokeWidth=2;html=1;shape=mxgraph.flowchart.display;whiteSpace=wrap;" vertex="1" parent="WIyWlLk6GJQsqaUBKTNV-1">
          <mxGeometry x="630" y="1410" width="220" height="90" as="geometry" />
        </mxCell>
        <mxCell id="Jel6dJNTwGemCwluBwx1-95" style="edgeStyle=orthogonalEdgeStyle;rounded=0;orthogonalLoop=1;jettySize=auto;html=1;exitX=1;exitY=0.5;exitDx=0;exitDy=0;exitPerimeter=0;" edge="1" parent="WIyWlLk6GJQsqaUBKTNV-1" source="Jel6dJNTwGemCwluBwx1-57">
          <mxGeometry relative="1" as="geometry">
            <mxPoint x="1030" y="1300" as="targetPoint" />
          </mxGeometry>
        </mxCell>
        <mxCell id="Jel6dJNTwGemCwluBwx1-57" value="Display&amp;nbsp;&lt;div&gt;&quot;The month is January and the&lt;div&gt;&amp;nbsp;season is Winter.&quot;&lt;/div&gt;&lt;/div&gt;" style="strokeWidth=2;html=1;shape=mxgraph.flowchart.display;whiteSpace=wrap;" vertex="1" parent="WIyWlLk6GJQsqaUBKTNV-1">
          <mxGeometry x="625" y="1225" width="210" height="70" as="geometry" />
        </mxCell>
        <mxCell id="Jel6dJNTwGemCwluBwx1-94" style="edgeStyle=orthogonalEdgeStyle;rounded=0;orthogonalLoop=1;jettySize=auto;html=1;exitX=1;exitY=0.5;exitDx=0;exitDy=0;exitPerimeter=0;" edge="1" parent="WIyWlLk6GJQsqaUBKTNV-1" source="Jel6dJNTwGemCwluBwx1-58">
          <mxGeometry relative="1" as="geometry">
            <mxPoint x="1030" y="1130" as="targetPoint" />
          </mxGeometry>
        </mxCell>
        <mxCell id="Jel6dJNTwGemCwluBwx1-58" value="Display&amp;nbsp;&lt;div&gt;&quot;The month is December and the&lt;div&gt;&amp;nbsp;season is Winter.&quot;&lt;/div&gt;&lt;/div&gt;" style="strokeWidth=2;html=1;shape=mxgraph.flowchart.display;whiteSpace=wrap;" vertex="1" parent="WIyWlLk6GJQsqaUBKTNV-1">
          <mxGeometry x="630" y="1030" width="220" height="90" as="geometry" />
        </mxCell>
        <mxCell id="Jel6dJNTwGemCwluBwx1-60" style="edgeStyle=orthogonalEdgeStyle;rounded=0;orthogonalLoop=1;jettySize=auto;html=1;exitX=1;exitY=0.5;exitDx=0;exitDy=0;exitPerimeter=0;entryX=0;entryY=0.5;entryDx=0;entryDy=0;entryPerimeter=0;" edge="1" parent="WIyWlLk6GJQsqaUBKTNV-1" source="Jel6dJNTwGemCwluBwx1-5" target="Jel6dJNTwGemCwluBwx1-47">
          <mxGeometry relative="1" as="geometry" />
        </mxCell>
        <mxCell id="Jel6dJNTwGemCwluBwx1-72" value="TRUE" style="edgeLabel;html=1;align=center;verticalAlign=middle;resizable=0;points=[];" vertex="1" connectable="0" parent="Jel6dJNTwGemCwluBwx1-60">
          <mxGeometry x="0.0333" y="-2" relative="1" as="geometry">
            <mxPoint as="offset" />
          </mxGeometry>
        </mxCell>
        <mxCell id="Jel6dJNTwGemCwluBwx1-61" style="edgeStyle=orthogonalEdgeStyle;rounded=0;orthogonalLoop=1;jettySize=auto;html=1;exitX=1;exitY=0.5;exitDx=0;exitDy=0;exitPerimeter=0;entryX=0;entryY=0.5;entryDx=0;entryDy=0;entryPerimeter=0;" edge="1" parent="WIyWlLk6GJQsqaUBKTNV-1" source="Jel6dJNTwGemCwluBwx1-7" target="Jel6dJNTwGemCwluBwx1-48">
          <mxGeometry relative="1" as="geometry" />
        </mxCell>
        <mxCell id="Jel6dJNTwGemCwluBwx1-73" value="TRUE" style="edgeLabel;html=1;align=center;verticalAlign=middle;resizable=0;points=[];" vertex="1" connectable="0" parent="Jel6dJNTwGemCwluBwx1-61">
          <mxGeometry x="0.1636" y="1" relative="1" as="geometry">
            <mxPoint as="offset" />
          </mxGeometry>
        </mxCell>
        <mxCell id="Jel6dJNTwGemCwluBwx1-62" style="edgeStyle=orthogonalEdgeStyle;rounded=0;orthogonalLoop=1;jettySize=auto;html=1;exitX=1;exitY=0.5;exitDx=0;exitDy=0;exitPerimeter=0;entryX=0;entryY=0.5;entryDx=0;entryDy=0;entryPerimeter=0;" edge="1" parent="WIyWlLk6GJQsqaUBKTNV-1" source="Jel6dJNTwGemCwluBwx1-8" target="Jel6dJNTwGemCwluBwx1-49">
          <mxGeometry relative="1" as="geometry" />
        </mxCell>
        <mxCell id="Jel6dJNTwGemCwluBwx1-74" value="TRUE" style="edgeLabel;html=1;align=center;verticalAlign=middle;resizable=0;points=[];" vertex="1" connectable="0" parent="Jel6dJNTwGemCwluBwx1-62">
          <mxGeometry x="-0.1833" relative="1" as="geometry">
            <mxPoint as="offset" />
          </mxGeometry>
        </mxCell>
        <mxCell id="Jel6dJNTwGemCwluBwx1-63" style="edgeStyle=orthogonalEdgeStyle;rounded=0;orthogonalLoop=1;jettySize=auto;html=1;exitX=1;exitY=0.5;exitDx=0;exitDy=0;exitPerimeter=0;entryX=0;entryY=0.5;entryDx=0;entryDy=0;entryPerimeter=0;" edge="1" parent="WIyWlLk6GJQsqaUBKTNV-1" source="Jel6dJNTwGemCwluBwx1-9" target="Jel6dJNTwGemCwluBwx1-51">
          <mxGeometry relative="1" as="geometry" />
        </mxCell>
        <mxCell id="Jel6dJNTwGemCwluBwx1-75" value="TRUE" style="edgeLabel;html=1;align=center;verticalAlign=middle;resizable=0;points=[];" vertex="1" connectable="0" parent="Jel6dJNTwGemCwluBwx1-63">
          <mxGeometry x="-0.1385" y="-3" relative="1" as="geometry">
            <mxPoint as="offset" />
          </mxGeometry>
        </mxCell>
        <mxCell id="Jel6dJNTwGemCwluBwx1-64" style="edgeStyle=orthogonalEdgeStyle;rounded=0;orthogonalLoop=1;jettySize=auto;html=1;exitX=1;exitY=0.5;exitDx=0;exitDy=0;exitPerimeter=0;entryX=0;entryY=0.5;entryDx=0;entryDy=0;entryPerimeter=0;" edge="1" parent="WIyWlLk6GJQsqaUBKTNV-1" source="Jel6dJNTwGemCwluBwx1-10" target="Jel6dJNTwGemCwluBwx1-50">
          <mxGeometry relative="1" as="geometry" />
        </mxCell>
        <mxCell id="Jel6dJNTwGemCwluBwx1-76" value="TRUE" style="edgeLabel;html=1;align=center;verticalAlign=middle;resizable=0;points=[];" vertex="1" connectable="0" parent="Jel6dJNTwGemCwluBwx1-64">
          <mxGeometry x="0.0357" y="-1" relative="1" as="geometry">
            <mxPoint y="1" as="offset" />
          </mxGeometry>
        </mxCell>
        <mxCell id="Jel6dJNTwGemCwluBwx1-65" style="edgeStyle=orthogonalEdgeStyle;rounded=0;orthogonalLoop=1;jettySize=auto;html=1;exitX=1;exitY=0.5;exitDx=0;exitDy=0;exitPerimeter=0;entryX=0;entryY=0.5;entryDx=0;entryDy=0;entryPerimeter=0;" edge="1" parent="WIyWlLk6GJQsqaUBKTNV-1" source="Jel6dJNTwGemCwluBwx1-11" target="Jel6dJNTwGemCwluBwx1-53">
          <mxGeometry relative="1" as="geometry" />
        </mxCell>
        <mxCell id="Jel6dJNTwGemCwluBwx1-77" value="TRUE" style="edgeLabel;html=1;align=center;verticalAlign=middle;resizable=0;points=[];" vertex="1" connectable="0" parent="Jel6dJNTwGemCwluBwx1-65">
          <mxGeometry x="0.0267" y="-1" relative="1" as="geometry">
            <mxPoint as="offset" />
          </mxGeometry>
        </mxCell>
        <mxCell id="Jel6dJNTwGemCwluBwx1-66" style="edgeStyle=orthogonalEdgeStyle;rounded=0;orthogonalLoop=1;jettySize=auto;html=1;exitX=1;exitY=0.5;exitDx=0;exitDy=0;exitPerimeter=0;entryX=0;entryY=0.5;entryDx=0;entryDy=0;entryPerimeter=0;" edge="1" parent="WIyWlLk6GJQsqaUBKTNV-1" source="Jel6dJNTwGemCwluBwx1-12" target="Jel6dJNTwGemCwluBwx1-55">
          <mxGeometry relative="1" as="geometry" />
        </mxCell>
        <mxCell id="Jel6dJNTwGemCwluBwx1-78" value="TRUE" style="edgeLabel;html=1;align=center;verticalAlign=middle;resizable=0;points=[];" vertex="1" connectable="0" parent="Jel6dJNTwGemCwluBwx1-66">
          <mxGeometry x="0.2281" y="2" relative="1" as="geometry">
            <mxPoint y="1" as="offset" />
          </mxGeometry>
        </mxCell>
        <mxCell id="Jel6dJNTwGemCwluBwx1-67" style="edgeStyle=orthogonalEdgeStyle;rounded=0;orthogonalLoop=1;jettySize=auto;html=1;exitX=1;exitY=0.5;exitDx=0;exitDy=0;exitPerimeter=0;entryX=0;entryY=0.5;entryDx=0;entryDy=0;entryPerimeter=0;" edge="1" parent="WIyWlLk6GJQsqaUBKTNV-1" source="Jel6dJNTwGemCwluBwx1-13" target="Jel6dJNTwGemCwluBwx1-54">
          <mxGeometry relative="1" as="geometry" />
        </mxCell>
        <mxCell id="Jel6dJNTwGemCwluBwx1-79" value="TRUE" style="edgeLabel;html=1;align=center;verticalAlign=middle;resizable=0;points=[];" vertex="1" connectable="0" parent="Jel6dJNTwGemCwluBwx1-67">
          <mxGeometry relative="1" as="geometry">
            <mxPoint as="offset" />
          </mxGeometry>
        </mxCell>
        <mxCell id="Jel6dJNTwGemCwluBwx1-68" style="edgeStyle=orthogonalEdgeStyle;rounded=0;orthogonalLoop=1;jettySize=auto;html=1;exitX=1;exitY=0.5;exitDx=0;exitDy=0;exitPerimeter=0;entryX=0;entryY=0.5;entryDx=0;entryDy=0;entryPerimeter=0;" edge="1" parent="WIyWlLk6GJQsqaUBKTNV-1" source="Jel6dJNTwGemCwluBwx1-15" target="Jel6dJNTwGemCwluBwx1-52">
          <mxGeometry relative="1" as="geometry" />
        </mxCell>
        <mxCell id="Jel6dJNTwGemCwluBwx1-80" value="TRUE" style="edgeLabel;html=1;align=center;verticalAlign=middle;resizable=0;points=[];" vertex="1" connectable="0" parent="Jel6dJNTwGemCwluBwx1-68">
          <mxGeometry x="0.1029" y="2" relative="1" as="geometry">
            <mxPoint as="offset" />
          </mxGeometry>
        </mxCell>
        <mxCell id="Jel6dJNTwGemCwluBwx1-69" style="edgeStyle=orthogonalEdgeStyle;rounded=0;orthogonalLoop=1;jettySize=auto;html=1;exitX=1;exitY=0.5;exitDx=0;exitDy=0;exitPerimeter=0;entryX=0;entryY=0.5;entryDx=0;entryDy=0;entryPerimeter=0;" edge="1" parent="WIyWlLk6GJQsqaUBKTNV-1" source="Jel6dJNTwGemCwluBwx1-16" target="Jel6dJNTwGemCwluBwx1-58">
          <mxGeometry relative="1" as="geometry" />
        </mxCell>
        <mxCell id="Jel6dJNTwGemCwluBwx1-81" value="TRUE" style="edgeLabel;html=1;align=center;verticalAlign=middle;resizable=0;points=[];" vertex="1" connectable="0" parent="Jel6dJNTwGemCwluBwx1-69">
          <mxGeometry x="0.1135" y="2" relative="1" as="geometry">
            <mxPoint as="offset" />
          </mxGeometry>
        </mxCell>
        <mxCell id="Jel6dJNTwGemCwluBwx1-70" style="edgeStyle=orthogonalEdgeStyle;rounded=0;orthogonalLoop=1;jettySize=auto;html=1;exitX=1;exitY=0.5;exitDx=0;exitDy=0;exitPerimeter=0;entryX=0;entryY=0.5;entryDx=0;entryDy=0;entryPerimeter=0;" edge="1" parent="WIyWlLk6GJQsqaUBKTNV-1" source="Jel6dJNTwGemCwluBwx1-17" target="Jel6dJNTwGemCwluBwx1-57">
          <mxGeometry relative="1" as="geometry" />
        </mxCell>
        <mxCell id="Jel6dJNTwGemCwluBwx1-82" value="TRUE" style="edgeLabel;html=1;align=center;verticalAlign=middle;resizable=0;points=[];" vertex="1" connectable="0" parent="Jel6dJNTwGemCwluBwx1-70">
          <mxGeometry x="0.0596" relative="1" as="geometry">
            <mxPoint as="offset" />
          </mxGeometry>
        </mxCell>
        <mxCell id="Jel6dJNTwGemCwluBwx1-71" style="edgeStyle=orthogonalEdgeStyle;rounded=0;orthogonalLoop=1;jettySize=auto;html=1;exitX=1;exitY=0.5;exitDx=0;exitDy=0;exitPerimeter=0;entryX=0;entryY=0.5;entryDx=0;entryDy=0;entryPerimeter=0;" edge="1" parent="WIyWlLk6GJQsqaUBKTNV-1" source="Jel6dJNTwGemCwluBwx1-18" target="Jel6dJNTwGemCwluBwx1-56">
          <mxGeometry relative="1" as="geometry" />
        </mxCell>
        <mxCell id="Jel6dJNTwGemCwluBwx1-83" value="TRUE" style="edgeLabel;html=1;align=center;verticalAlign=middle;resizable=0;points=[];" vertex="1" connectable="0" parent="Jel6dJNTwGemCwluBwx1-71">
          <mxGeometry x="-0.131" y="-5" relative="1" as="geometry">
            <mxPoint as="offset" />
          </mxGeometry>
        </mxCell>
        <mxCell id="Jel6dJNTwGemCwluBwx1-84" style="edgeStyle=orthogonalEdgeStyle;rounded=0;orthogonalLoop=1;jettySize=auto;html=1;exitX=1;exitY=0.5;exitDx=0;exitDy=0;exitPerimeter=0;entryX=0.5;entryY=0;entryDx=0;entryDy=0;entryPerimeter=0;" edge="1" parent="WIyWlLk6GJQsqaUBKTNV-1" source="Jel6dJNTwGemCwluBwx1-47" target="Jel6dJNTwGemCwluBwx1-1">
          <mxGeometry relative="1" as="geometry" />
        </mxCell>
      </root>
    </mxGraphModel>
  </diagram>
</mxfile>
